<?xml version="1.0" encoding="utf-8"?>
<!-- Generator: Adobe Illustrator 22.1.0, SVG Export Plug-In . SVG Version: 6.00 Build 0)  -->
<svg version="1.1" id="Layer_1" xmlns="http://www.w3.org/2000/svg" xmlns:xlink="http://www.w3.org/1999/xlink" x="0px" y="0px"
	 viewBox="0 0 1000 1000" style="enable-background:new 0 0 1000 1000;" xml:space="preserve">
<style type="text/css">
	.st0{display:none;}
	.st1{display:inline;fill:#FFFFFF;}
	.st2{fill:#FFFFFF;}
	.st3{display:inline;}
</style>
<g class="st0">
	<path id="XMLID_190_" class="st1" d="M501.3,815.5c-87.9-105.5-169-209.6-211-337.2c-52-157.8,52.8-309.1,211.5-308.8
		c149.5,0.3,255.7,141.3,216.2,288.6c-28.4,105.8-89.8,194-154.4,280.1C544.6,763.7,523.8,787.8,501.3,815.5z M501.7,316.1
		c-42.8-0.2-80,36.4-80.3,79c-0.3,41.9,37.4,80.1,79.4,80.4c41.9,0.3,79.9-37.4,80.2-79.5C581.3,353.4,544.5,316.4,501.7,316.1z"/>
</g>
<g>
	<path id="XMLID_183_" class="st2" d="M32.2,751.2c37,0,74,0,111,0c-44.9-36.4-35.1-85.7-35.3-131.7c-0.4-121.9-0.5-243.7,0-365.6
		c0.3-71.8,28.1-99.3,100.2-99.4c197.6-0.3,395.3-0.3,592.9,0c69.4,0.1,100.4,31.1,100.6,100.9c0.4,132.3,1.7,264.6-1.8,396.7
		c-0.9,32.4-18.8,64.3-29.3,97.6c27.6,0,64,0,100,0c4.4,53.3-23.1,80.6-80.6,80.9c-133.7,0.6-267.5,0.2-401.2,0.2
		c-123.3,0-246.7,0.3-370-0.2C62.1,830.4,34.9,805.3,32.2,751.2z M191.3,668.3c209.8,0,415.7,0,623.1,0c0-143.7,0-285.2,0-428.3
		c-209.4,0-415.2,0-623.1,0C191.3,383.2,191.3,523.8,191.3,668.3z M501.7,803.8c18-24.3,36.3-38.1,35.5-50.8
		c-0.8-13.5-19.6-26-30.5-38.9c-13.5,12.1-34.2,22.2-38.2,36.9C465.7,761.7,484.8,778.3,501.7,803.8z"/>
</g>
<g class="st0">
	<path id="XMLID_181_" class="st1" d="M123.7,638.6c-0.8,17.2-1.5,31.8-2.2,48.1c-28.1,0-54.3,0-82.6,0c-1-6.7-2.9-13.8-2.9-20.8
		c-0.2-80.9,1-161.9-0.7-242.8c-0.7-32.6,17.5-37.2,42.2-36.9c24.4,0.4,47.5,0.8,45.7,36.7c-2,40.2-0.5,80.6-0.5,123.1
		c253,0,503.8,0,758.7,0c0-40.3,1.8-80.6-0.6-120.7c-2-33.9,16.7-39.5,43.2-39.2c25.1,0.3,44.9,2.2,43.9,37.8
		c-2.4,87-0.8,174.1-0.8,262.9c-29,0-55.1,0-83.5,0c-1.4-15.8-2.8-31.2-4.4-48.2C626.8,638.6,375.4,638.6,123.7,638.6z"/>
	<path id="XMLID_180_" class="st1" d="M840.9,456c-228.7,0-449.6,0-677.8,0c5.7-43,10.1-83.7,16.8-124c4.1-24.4,20.1-34.1,45.9-33.6
		c70.2,1.4,140.6,1.6,210.8-0.1c30.2-0.7,55.3,1.9,65.1,39.3c8.9-36.6,33.2-40,62.9-39.3c70.2,1.6,140.6,1.9,210.8-0.2
		c29.6-0.9,45,12,49.5,37.8C831.9,374.5,835.5,413.5,840.9,456z"/>
	<path id="XMLID_176_" class="st1" d="M502.2,471c111.7,0,223.4,0.5,335-0.4c23.6-0.2,36.2,5.7,35.7,31.5
		c-0.5,25.7-14.3,31.6-37.1,31.6c-222.3-0.4-444.6-0.4-666.9,0c-23.8,0-39.1-5.2-39.1-33c0-27.1,15.3-30.1,37.4-29.9
		C278.9,471.4,390.6,471,502.2,471z"/>
</g>
<g class="st0">
	<path id="XMLID_177_" class="st1" d="M112.9,384.6c-19.5-19.2-38.7-38.1-57.8-56.8C244.6,96.2,691.4,50.2,948,322
		c-21.9,17-44.1,34.2-68.8,53.4C633.4,172.2,375.5,170.3,112.9,384.6z"/>
	<path id="XMLID_175_" class="st1" d="M240.7,513.8c-21.1-20.3-41.5-39.9-61.7-59.3c150-184.3,484-193,644.8-1.4
		c-19.9,20.1-39.9,40.3-60.3,60.9C588.3,370.3,414.4,370.2,240.7,513.8z"/>
	<path id="XMLID_173_" class="st1" d="M368,640.5c-20.5-21.3-41-42.6-61.5-63.8c97.1-112.5,286.6-113.5,389.9-1.3
		c-20.6,20.9-41.1,41.8-61.9,62.9C518.6,567.3,474.5,567.7,368,640.5z"/>
	<path id="XMLID_172_" class="st1" d="M500.3,849.4c-39.8-1.1-73.2-34.9-73.2-73.9c0-39.3,38.6-77.2,77.1-75.7
		c39.4,1.5,75.8,40.9,73.3,79.4C574.9,818.5,539.8,850.5,500.3,849.4z"/>
</g>
<g class="st0">
	<path id="XMLID_187_" class="st1" d="M112.4,831.4c78.6,0,157.1,0,244.8,0C227.5,767.9,162.3,671,156.1,529.3c13.9,0,24.9,0,35.8,0
		c191,0,382-0.2,573.1,0.3c17,0,34.4,2.1,50.8,6.3c49.6,12.7,78.5,46.6,76.7,87.6c-1.7,38.4-38.5,83.5-83.7,80.6
		c-63.5-4.1-101.7,23.6-139.4,67.7c-20,23.4-51.3,37.1-81.5,57.9c76.5,0,150.4,0,234.7,0c-12.6,9.9-16.1,14.8-20.4,15.7
		c-42.6,8.2-85.1,21.5-127.9,22.3c-144.1,2.9-288.3,3.4-432.3,0.1c-43.9-1-87.5-17.3-131.2-26.6
		C111.3,837.9,111.8,834.6,112.4,831.4z M749.7,674.5c36.3,11,68.3,3.8,90.7-22.9c10.1-12,14.4-37.9,8.5-52.3
		c-11.4-28.2-38.5-39.1-68.5-36.8C770.3,599.4,760.5,635,749.7,674.5z"/>
	<path id="XMLID_168_" class="st1" d="M504.6,482.8c-21.5-46.1-18.2-95.4-2.5-142.1c33-98,35.2-197,20.3-297.8
		c-1-6.6-0.1-13.5,1.8-20.2c28.3,94.6,28,189.4-0.1,284.1C499.1,391.7,495,429.5,504.6,482.8z"/>
	<path id="XMLID_167_" class="st1" d="M415.3,472.5c-17.1-44.1-14.3-88.8,0.1-130.9c35.6-104.4,38-209.8,17.8-317
		c-0.6-3.2,0.6-6.6,1.7-17.6c31.5,100.6,32.2,194.3,6,288.4C424.8,353.4,405.5,410.8,415.3,472.5z"/>
	<path id="XMLID_166_" class="st1" d="M451,470.1c-12.4-35.5-11.4-81.6,3.1-124.8c34.7-103.3,38.9-207.4,20-313.6
		c-0.6-3.2,0.3-6.7,0.6-10.8c18.8,35.6,31.5,127.2,22.1,181.6c-8.5,49.2-22.3,97.4-30.9,146.6C458.7,390.9,455.4,433.5,451,470.1z"
		/>
</g>
<g class="st0">
	<path id="XMLID_179_" class="st1" d="M633.7,50c32.4,53.1,32.8,107.2,4.1,165.4c61.3-9.1,111.5,6.2,153.7,46.9
		c-51.1,57.7-117.7,62.1-213.1,9c-29.9,56.2-59.8,112.1-89.6,168.1c3.1,2.7,6.3,5.3,9.4,8c78.6-63.1,157.6-55,238.4-6.4
		c-61.7,84.1-132.4,101.8-251.8,61.5c0,81.8,0,161.8,0,253.6c59.6-97.2,141-124.7,240-117.2c-16.2,119.3-95.9,183.7-238.9,193.7
		c0,32.3,0,65.2,0,102.5c-20.9-18.8-21-18.8-21.6-92.2c-0.3-31.1,0-62.1,0-97.5c-73.5,3.8-139-8.8-183.6-65.2
		c-27.3-34.5-45.7-76.1-69-116.1c72-25.7,183.8,2.8,239.4,89.7c8.6-84.4,17.2-168.5,26-254.6c-51.1,0-104.4-9.7-140.5-54.2
		c-24.5-30.2-41.1-66.7-63.1-103.4c102.8-21.3,167.1,15,224.1,116.6c21.4-29.8,44.3-59.7,64.6-91.2c5.7-8.9,7.9-23.8,4.9-33.9
		C543.9,156.2,565.2,95,633.7,50z"/>
	<path id="XMLID_165_" class="st1" d="M425,539.3c-44.5-21.5-78.2-36.2-110-54.2c-10.3-5.8-23.6-22.7-21.3-30.4
		c3.5-11.9,19.2-28.3,29.6-28.2c16.1,0.2,37.4,8.5,46.9,20.7C390.8,473.9,405.3,505.2,425,539.3z"/>
	<path id="XMLID_164_" class="st1" d="M572.8,592.2c21.5-13.3,42-29.1,65.1-38.8c9.4-4,24.4,5.2,36.8,8.4
		c-5.6,11.5-8.8,30.1-17.3,33.1c-25.6,8.8-53.4,11.5-80.3,16.5C575.6,605,574.2,598.6,572.8,592.2z"/>
	<path id="XMLID_163_" class="st1" d="M581.6,360.1c29.8-7,59.4-16,89.7-19.6c8.1-1,20.6,13.2,26.5,23.1c3.1,5.1-1.9,21.6-6.7,23.4
		c-9.5,3.4-21.7,1.6-32.3-0.6c-24.8-5-49.3-11.5-73.9-17.4C583.9,366,582.8,363,581.6,360.1z"/>
	<path id="XMLID_162_" class="st1" d="M517.6,233.2c-33.4-31.5-36.7-59.9-30.8-89.3c1.3-6.7,14.1-14.4,22.3-15.3
		c4.9-0.6,16.1,11.3,16,17.4C524.7,171.8,521,197.6,517.6,233.2z"/>
	<path id="XMLID_160_" class="st1" d="M496.1,220.8c-13.1,5.5-16.3,8-17.5,7.2c-18.3-11.8-36.2-24.1-54.3-36.2
		c4.7-5.2,12.9-15.3,13.6-14.8C456.4,189.8,474,203.7,496.1,220.8z"/>
</g>
<g class="st0">
	<path id="XMLID_182_" class="st1" d="M738.8,457.2c60.1,0,117.9,0,178.4,0c0,88,2.3,174.1-1.1,259.9c-1.4,34.2-28,56.5-61.6,64.8
		c-16.5,4.1-34.2,4.7-51.3,4.7c-200.6,0.3-401.3,0.3-601.9,0.1c-88.3-0.1-116.7-28.6-116.9-117c-0.2-70.1,0-140.2,0-212.5
		c109.9,0,215.7,0,324.4,0c-25.6,91.7-6.5,169.4,77.7,220.1c62.4,37.6,128,34.6,187.5-7.2C748.5,617.7,765.4,544,738.8,457.2z"/>
	<path id="XMLID_178_" class="st1" d="M84.5,430c0-26.4-0.7-47.5,0.1-68.5C87,302.3,119,266,178.2,265
		c149.9-2.6,299.8-1.9,449.7-2.6c49-0.2,98.1-0.7,147.1-0.8c124.6-0.1,158.1,39,139.2,168.1c-59.8,0-120.5,0.7-181-0.8
		c-8.3-0.2-17.6-9.9-24.5-17.1c-78.1-81.4-190-81.8-267.5-1.4c-8.3,8.6-20.9,18.5-31.7,18.7C303.4,430.5,197.4,430,84.5,430z"/>
	<path id="XMLID_174_" class="st1" d="M572.4,639.9c-63.7-0.8-113.7-50.8-113.7-113.6c0.1-64.2,52.9-115.5,117.6-114.4
		c63.3,1.1,113.6,51.7,113.7,114.3C690.1,590.7,638.3,640.8,572.4,639.9z"/>
	<path id="XMLID_169_" class="st1" d="M629.6,256.1c-88.7,0-174.1,0-262.9,0c14.4-38.7,32.7-62.6,77.9-57.1
		c36.6,4.4,74.6,4.4,111.2,0C600.7,193.6,615.8,219.3,629.6,256.1z M526.5,207.1c-20.5,6.8-57.2,9.6-61.1,22.4
		c-8.3,26.9,21.9,15,36,16.6C521.6,248.4,544.5,249,526.5,207.1z"/>
	<path id="XMLID_161_" class="st1" d="M827.9,255.8c-35.6,0-67.8,0-100.1,0c-1.8-3.5-3.5-7.1-5.3-10.6c11.7-7.1,23.9-20.8,35.1-20.1
		C782.1,226.7,818,206.1,827.9,255.8z"/>
	<path id="XMLID_159_" class="st1" d="M261.7,254c-22.4,0-44.8,0-76.7,0c29.6-27.9,53-22,76.6-13.5C261.6,245,261.6,249.5,261.7,254
		z"/>
	<path id="XMLID_153_" class="st1" d="M526.5,207.1c18,41.9-4.9,41.3-25.1,39c-14.1-1.6-44.3,10.3-36-16.6
		C469.4,216.7,506,213.9,526.5,207.1z"/>
</g>
<g id="Jb1IQb_1_" class="st0">
	<g id="XMLID_2_" class="st3">
		<path id="XMLID_42_" class="st2" d="M287.9,658.1C227.7,601.6,173.5,538.4,98,499.5c-37.3-19.2-42.6-45.9-21.5-82.4
			c24.3-42.2,50.4-83.3,75.4-125.1c19.2-32.2,47.7-41.6,76.3-19.1c75.1,59.3,142.5,26.1,213-9.8c-8.3-19.8-20.1-37-21.9-55.2
			c-1.5-14.5,5.1-35.4,15.7-43.7c7.8-6.1,28,3.4,42.5,6.5c2.2,0.5,3.7,3.6,5.8,5.2c19.3,15.6,37.6,41.4,58.2,43.3
			c14.9,1.4,31.8-30,49.7-44.4c7.8-6.2,23.4-11.7,30.3-8c9.9,5.3,20.4,19.1,21,29.8c0.9,17.5-6,35.4-10.1,55.2
			c25.3,8.2,53.1,22,81.9,24.9c25.4,2.6,55.1-1,77.4-12.4c28.9-14.7,48.7-12.1,63,14.2c27.6,50.8,53.9,102.5,78.3,155
			c11.3,24.3,7.2,47.6-16.5,66.7C884.1,526,854,554.7,822.8,582c-16.8,14.7-35.1,28-50.7,43.9c-9.8,10-19.4,22.9-22.6,36.1
			c-8.1,33-25.2,44-57.4,28c-51.8-25.7-102.4-53.9-153.5-81c-11.1-5.9-22.1-12-33.1-18c-4.6,5-9.1,9.9-13.7,14.9
			c9.4,3.4,19.4,5.7,28,10.4c43.8,24.1,86.6,50,131,72.9c23.5,12.2,43.2,25.1,28.8,53.8c-13.8,27.7-37.8,24-61.1,11.7
			c-44.2-23.3-88.2-46.8-132.2-70.4c-9.7-5.2-19-11-28.5-16.6c-1.9,2.8-3.8,5.6-5.7,8.4c17.1,11.6,33.5,24.5,51.5,34.5
			c27.5,15.3,56.2,28.6,84.4,42.8c19.6,9.9,39.4,20,26.1,47.5c-11.6,24.1-30.1,26.6-52.5,15.4c-59.9-29.8-120-59.3-180-89l1.3,1.4
			c-26.8-19.1-53.6-38.2-80.5-57.3C297.6,667,292.7,662.5,287.9,658.1z M502.3,327.6c-2.8,17.7-5.4,34.2-9.4,60.2
			c22.4-12.3,33.4-18.3,44.3-24.3c66,58.6,103.9,75.3,134.1,66.7C621.1,399.6,564.8,365.5,502.3,327.6z M733.4,616.2
			C672.2,582.4,611.1,548.7,550,515C605.8,559.1,662.4,601.4,733.4,616.2z"/>
		<path id="XMLID_41_" class="st2" d="M381.7,727.4c7.9,9.2,15.7,18.4,25,29.2c-20.4,16.7-38.6,45.1-68,18
			c-21.7-20.1-13.2-41.8,7.1-58.1c13.6,4.5,25.5,8.4,37.3,12.3C383,728.8,381.7,727.4,381.7,727.4z"/>
		<path id="XMLID_40_" class="st2" d="M479.2,785.2c-17.6,28.9-34.3,51-58.7,27.5c-7-6.8-3.6-24.4-5-37
			C436.8,778.9,458,782.1,479.2,785.2z"/>
		<path id="XMLID_39_" class="st2" d="M287.9,658.1c4.9,4.5,9.7,8.9,14.6,13.4c8.3,11,16.7,21.9,30.5,40.2
			c-17.8,3.2-34.5,11.6-44.1,6.6c-11.3-5.9-19.8-22.9-22.7-36.5C264.9,675.7,280.2,666.1,287.9,658.1z"/>
	</g>
</g>
</svg>
