<?xml version="1.0" encoding="utf-8"?>
<!-- Generator: Adobe Illustrator 22.1.0, SVG Export Plug-In . SVG Version: 6.00 Build 0)  -->
<svg version="1.1" id="Layer_1" xmlns="http://www.w3.org/2000/svg" xmlns:xlink="http://www.w3.org/1999/xlink" x="0px" y="0px"
	 viewBox="0 0 1000 1000" style="enable-background:new 0 0 1000 1000;" xml:space="preserve">
<style type="text/css">
	.st0{display:none;}
	.st1{display:inline;fill:#FFFFFF;}
	.st2{fill:#FFFFFF;}
</style>
<g class="st0">
	<path id="XMLID_190_" class="st1" d="M501.3,815.5c-87.9-105.5-169-209.6-211-337.2c-52-157.8,52.8-309.1,211.5-308.8
		c149.5,0.3,255.7,141.3,216.2,288.6c-28.4,105.8-89.8,194-154.4,280.1C544.6,763.7,523.8,787.8,501.3,815.5z M501.7,316.1
		c-42.8-0.2-80,36.4-80.3,79c-0.3,41.9,37.4,80.1,79.4,80.4c41.9,0.3,79.9-37.4,80.2-79.5C581.3,353.4,544.5,316.4,501.7,316.1z"/>
</g>
<g class="st0">
	<path id="XMLID_183_" class="st1" d="M165.2,677.9c26.5,0,53,0,79.5,0c-32.2-26.1-25.2-61.4-25.3-94.4c-0.3-87.3-0.4-174.7,0-262
		c0.2-51.5,20.2-71.2,71.8-71.3c141.6-0.2,283.3-0.2,424.9,0c49.7,0.1,71.9,22.3,72.1,72.3c0.3,94.8,1.2,189.6-1.3,284.3
		c-0.6,23.2-13.5,46.1-21,69.9c19.8,0,45.9,0,71.7,0c3.1,38.2-16.6,57.8-57.8,58c-95.8,0.4-191.7,0.1-287.5,0.1
		c-88.4,0-176.8,0.2-265.2-0.1C186.6,734.6,167.1,716.7,165.2,677.9z M279.2,618.5c150.3,0,297.9,0,446.6,0c0-103,0-204.4,0-307
		c-150,0-297.6,0-446.6,0C279.2,414.2,279.2,515,279.2,618.5z M501.7,715.6c12.9-17.4,26-27.3,25.5-36.4c-0.5-9.7-14-18.6-21.9-27.9
		c-9.7,8.7-24.5,15.9-27.4,26.4C475.9,685.4,489.6,697.4,501.7,715.6z"/>
</g>
<g class="st0">
	<path id="XMLID_181_" class="st1" d="M123.7,638.6c-0.8,17.2-1.5,31.8-2.2,48.1c-28.1,0-54.3,0-82.6,0c-1-6.7-2.9-13.8-2.9-20.8
		c-0.2-80.9,1-161.9-0.7-242.8c-0.7-32.6,17.5-37.2,42.2-36.9c24.4,0.4,47.5,0.8,45.7,36.7c-2,40.2-0.5,80.6-0.5,123.1
		c253,0,503.8,0,758.7,0c0-40.3,1.8-80.6-0.6-120.7c-2-33.9,16.7-39.5,43.2-39.2c25.1,0.3,44.9,2.2,43.9,37.8
		c-2.4,87-0.8,174.1-0.8,262.9c-29,0-55.1,0-83.5,0c-1.4-15.8-2.8-31.2-4.4-48.2C626.8,638.6,375.4,638.6,123.7,638.6z"/>
	<path id="XMLID_180_" class="st1" d="M840.9,456c-228.7,0-449.6,0-677.8,0c5.7-43,10.1-83.7,16.8-124c4.1-24.4,20.1-34.1,45.9-33.6
		c70.2,1.4,140.6,1.6,210.8-0.1c30.2-0.7,55.3,1.9,65.1,39.3c8.9-36.6,33.2-40,62.9-39.3c70.2,1.6,140.6,1.9,210.8-0.2
		c29.6-0.9,45,12,49.5,37.8C831.9,374.5,835.5,413.5,840.9,456z"/>
	<path id="XMLID_176_" class="st1" d="M502.2,471c111.7,0,223.4,0.5,335-0.4c23.6-0.2,36.2,5.7,35.7,31.5
		c-0.5,25.7-14.3,31.6-37.1,31.6c-222.3-0.4-444.6-0.4-666.9,0c-23.8,0-39.1-5.2-39.1-33c0-27.1,15.3-30.1,37.4-29.9
		C278.9,471.4,390.6,471,502.2,471z"/>
</g>
<g class="st0">
	<path id="XMLID_177_" class="st1" d="M212.3,412.2c-14.5-14.3-28.8-28.3-43-42.3c141-172.4,473.6-206.6,664.6-4.3
		c-16.3,12.7-32.8,25.4-51.2,39.7C599.7,254.1,407.7,252.6,212.3,412.2z"/>
	<path id="XMLID_175_" class="st1" d="M307.4,508.4c-15.7-15.1-30.9-29.7-45.9-44.1c111.6-137.2,360.3-143.7,480-1
		c-14.8,15-29.7,30-44.9,45.4C566.2,401.6,436.7,401.4,307.4,508.4z"/>
	<path id="XMLID_173_" class="st1" d="M402.2,602.7c-15.3-15.9-30.5-31.7-45.8-47.5c72.3-83.8,213.3-84.5,290.3-1
		c-15.3,15.6-30.6,31.1-46.1,46.8C514.2,548.2,481.5,548.5,402.2,602.7z"/>
	<path id="XMLID_172_" class="st1" d="M500.6,758.2c-29.6-0.8-54.5-26-54.5-55c0-29.2,28.7-57.5,57.4-56.4
		c29.3,1.1,56.4,30.4,54.6,59.1C556.2,735.2,530,759,500.6,758.2z"/>
</g>
<g class="st0">
	<path id="XMLID_187_" class="st1" d="M139.5,858c73.1,0,146.2,0,227.7,0C246.6,798.9,186,708.8,180.2,577c13,0,23.1,0,33.3,0
		c177.7,0,355.4-0.1,533.1,0.3c15.8,0,32,1.9,47.2,5.8c46.2,11.8,73,43.3,71.4,81.5c-1.6,35.7-35.8,77.7-77.9,75
		c-59.1-3.8-94.6,22-129.7,63c-18.6,21.7-47.7,34.5-75.8,53.9c71.1,0,139.9,0,218.4,0c-11.7,9.2-15,13.8-18.9,14.6
		c-39.6,7.6-79.2,20-119,20.8c-134,2.7-268.2,3.2-402.2,0.1c-40.9-0.9-81.4-16.1-122.1-24.7C138.5,864.1,139,861,139.5,858z
		 M732.4,712c33.7,10.2,63.6,3.5,84.4-21.3c9.4-11.2,13.4-35.2,7.9-48.6c-10.6-26.2-35.8-36.3-63.7-34.2
		C751.6,642.2,742.5,675.3,732.4,712z"/>
	<path id="XMLID_168_" class="st1" d="M504.4,533.7c-20-42.9-16.9-88.8-2.3-132.2c30.7-91.2,32.7-183.3,18.9-277
		c-0.9-6.1-0.1-12.5,1.7-18.8c26.4,88,26.1,176.2-0.1,264.3C499.2,449,495.4,484.2,504.4,533.7z"/>
	<path id="XMLID_167_" class="st1" d="M421.3,524.1c-15.9-41-13.3-82.6,0.1-121.8c33.1-97.2,35.4-195.2,16.6-294.9
		c-0.6-2.9,0.5-6.2,1.6-16.4c29.3,93.6,30,180.8,5.6,268.3C430.1,413.3,412.2,466.7,421.3,524.1z"/>
	<path id="XMLID_166_" class="st1" d="M454.6,521.9c-11.6-33-10.6-75.9,2.9-116.1c32.3-96.1,36.2-193,18.6-291.8
		c-0.5-3,0.3-6.2,0.6-10c17.5,33.1,29.3,118.3,20.6,168.9c-7.9,45.8-20.7,90.6-28.7,136.4C461.7,448.2,458.6,487.9,454.6,521.9z"/>
</g>
<g class="st0">
	<path id="XMLID_179_" class="st1" d="M609.3,131.6c26.4,43.3,26.7,87.5,3.4,134.9c50-7.4,91,5.1,125.4,38.3
		c-41.7,47.1-96,50.7-173.8,7.3c-24.4,45.8-48.8,91.5-73.1,137.1c2.6,2.2,5.1,4.3,7.7,6.5c64.1-51.5,128.5-44.9,194.4-5.2
		c-50.3,68.6-108,83-205.4,50.1c0,66.7,0,131.9,0,206.8c48.6-79.3,115-101.7,195.8-95.6c-13.2,97.3-78.2,149.8-194.8,158
		c0,26.4,0,53.2,0,83.6c-17-15.3-17.1-15.3-17.6-75.2c-0.2-25.3,0-50.7,0-79.5c-59.9,3.1-113.3-7.2-149.7-53.2
		c-22.3-28.2-37.3-62.1-56.3-94.7c58.7-21,149.9,2.3,195.2,73.2c7-68.8,14.1-137.4,21.2-207.7c-41.7,0-85.2-7.9-114.6-44.2
		c-20-24.6-33.6-54.4-51.5-84.3c83.8-17.4,136.3,12.2,182.8,95.1c17.5-24.3,36.1-48.7,52.7-74.4c4.7-7.2,6.4-19.4,4-27.6
		C536.1,218.2,553.4,168.3,609.3,131.6z"/>
	<path id="XMLID_165_" class="st1" d="M439.2,530.7c-36.3-17.6-63.7-29.5-89.7-44.2c-8.4-4.7-19.2-18.5-17.4-24.8
		c2.8-9.7,15.7-23.1,24.1-23c13.1,0.1,30.5,6.9,38.3,16.9C411.2,477.3,423,502.8,439.2,530.7z"/>
	<path id="XMLID_164_" class="st1" d="M559.7,573.8c17.6-10.9,34.3-23.7,53.1-31.7c7.7-3.2,19.9,4.3,30,6.9
		c-4.6,9.4-7.2,24.6-14.1,27c-20.9,7.2-43.5,9.4-65.5,13.5C562,584.3,560.8,579.1,559.7,573.8z"/>
	<path id="XMLID_163_" class="st1" d="M566.9,384.5c24.3-5.7,48.5-13.1,73.1-16c6.6-0.8,16.8,10.8,21.6,18.9
		c2.5,4.2-1.5,17.7-5.4,19.1c-7.7,2.8-17.7,1.3-26.3-0.5c-20.2-4.1-40.2-9.4-60.2-14.2C568.7,389.3,567.8,386.9,566.9,384.5z"/>
	<path id="XMLID_162_" class="st1" d="M514.7,281c-27.3-25.7-29.9-48.8-25.1-72.9c1.1-5.5,11.5-11.7,18.2-12.5
		c4-0.5,13.1,9.2,13,14.2C520.4,230.9,517.4,252,514.7,281z"/>
	<path id="XMLID_160_" class="st1" d="M497.1,270.9c-10.7,4.5-13.3,6.5-14.3,5.9c-14.9-9.6-29.6-19.6-44.3-29.5
		c3.8-4.2,10.5-12.5,11.1-12.1C464.7,245.6,479.1,257,497.1,270.9z"/>
</g>
<g class="st0">
	<path id="XMLID_182_" class="st1" d="M691.7,464.2c48.1,0,94.5,0,143,0c0,70.5,1.8,139.5-0.9,208.3c-1.1,27.4-22.4,45.3-49.4,52
		c-13.2,3.3-27.4,3.8-41.1,3.8c-160.8,0.2-321.6,0.2-482.3,0.1c-70.7,0-93.5-22.9-93.7-93.7c-0.2-56.2,0-112.4,0-170.3
		c88.1,0,172.8,0,259.9,0c-20.5,73.5-5.2,135.7,62.3,176.4c50,30.1,102.6,27.7,150.3-5.8C699.5,592.8,713,533.8,691.7,464.2z"/>
	<path id="XMLID_178_" class="st1" d="M167.3,442.4c0-21.2-0.6-38.1,0.1-54.9c1.9-47.4,27.6-76.5,75-77.3
		c120.1-2.1,240.2-1.5,360.4-2c39.3-0.2,78.6-0.6,117.9-0.6c99.9-0.1,126.7,31.2,111.5,134.7c-47.9,0-96.5,0.5-145.1-0.6
		c-6.7-0.2-14.1-8-19.6-13.7c-62.6-65.2-152.3-65.6-214.4-1.1c-6.7,6.9-16.8,14.8-25.4,15C342.8,442.8,257.8,442.4,167.3,442.4z"/>
	<path id="XMLID_174_" class="st1" d="M558.3,610.7c-51.1-0.6-91.2-40.7-91.1-91.1c0.1-51.4,42.4-92.6,94.3-91.7
		c50.8,0.9,91,41.4,91.1,91.6C652.7,571.2,611.1,611.3,558.3,610.7z"/>
	<path id="XMLID_169_" class="st1" d="M604.2,303.1c-71.1,0-139.6,0-210.7,0c11.6-31,26.2-50.1,62.4-45.8c29.3,3.5,59.8,3.5,89.1,0
		C581,252.9,593.1,273.6,604.2,303.1z M521.6,263.8c-16.4,5.5-45.8,7.7-49,17.9c-6.6,21.6,17.6,12.1,28.9,13.3
		C517.6,296.9,536,297.4,521.6,263.8z"/>
	<path id="XMLID_161_" class="st1" d="M763.1,302.8c-28.5,0-54.4,0-80.2,0c-1.4-2.8-2.8-5.7-4.2-8.5c9.4-5.7,19.1-16.7,28.1-16.1
		C726.4,279.5,755.2,263,763.1,302.8z"/>
	<path id="XMLID_159_" class="st1" d="M309.3,301.4c-18,0-35.9,0-61.4,0c23.7-22.3,42.5-17.6,61.4-10.9
		C309.3,294.2,309.3,297.8,309.3,301.4z"/>
	<path id="XMLID_153_" class="st1" d="M521.6,263.8c14.4,33.6-3.9,33.1-20.1,31.2c-11.3-1.3-35.5,8.2-28.9-13.3
		C475.8,271.5,505.1,269.3,521.6,263.8z"/>
</g>
<g id="Jb1IQb_1_">
	<g id="XMLID_2_">
		<path id="XMLID_42_" class="st2" d="M287.9,658.1C227.7,601.6,173.5,538.4,98,499.5c-37.3-19.2-42.6-45.9-21.5-82.4
			c24.3-42.2,50.4-83.3,75.4-125.1c19.2-32.2,47.7-41.6,76.3-19.1c75.1,59.3,142.5,26.1,213-9.8c-8.3-19.8-20.1-37-21.9-55.2
			c-1.5-14.5,5.1-35.4,15.7-43.7c7.8-6.1,28,3.4,42.5,6.5c2.2,0.5,3.7,3.6,5.8,5.2c19.3,15.6,37.6,41.4,58.2,43.3
			c14.9,1.4,31.8-30,49.7-44.4c7.8-6.2,23.4-11.7,30.3-8c9.9,5.3,20.4,19.1,21,29.8c0.9,17.5-6,35.4-10.1,55.2
			c25.3,8.2,53.1,22,81.9,24.9c25.4,2.6,55.1-1,77.4-12.4c28.9-14.7,48.7-12.1,63,14.2c27.6,50.8,53.9,102.5,78.3,155
			c11.3,24.3,7.2,47.6-16.5,66.7C884.1,526,854,554.7,822.8,582c-16.8,14.7-35.1,28-50.7,43.9c-9.8,10-19.4,22.9-22.6,36.1
			c-8.1,33-25.2,44-57.4,28c-51.8-25.7-102.4-53.9-153.5-81c-11.1-5.9-22.1-12-33.1-18c-4.6,5-9.1,9.9-13.7,14.9
			c9.4,3.4,19.4,5.7,28,10.4c43.8,24.1,86.6,50,131,72.9c23.5,12.2,43.2,25.1,28.8,53.8c-13.8,27.7-37.8,24-61.1,11.7
			c-44.2-23.3-88.2-46.8-132.2-70.4c-9.7-5.2-19-11-28.5-16.6c-1.9,2.8-3.8,5.6-5.7,8.4c17.1,11.6,33.5,24.5,51.5,34.5
			c27.5,15.3,56.2,28.6,84.4,42.8c19.6,9.9,39.4,20,26.1,47.5c-11.6,24.1-30.1,26.6-52.5,15.4c-59.9-29.8-120-59.3-180-89l1.3,1.4
			c-26.8-19.1-53.6-38.2-80.5-57.3C297.6,667,292.7,662.5,287.9,658.1z M502.3,327.6c-2.8,17.7-5.4,34.2-9.4,60.2
			c22.4-12.3,33.4-18.3,44.3-24.3c66,58.6,103.9,75.3,134.1,66.7C621.1,399.6,564.8,365.5,502.3,327.6z M733.4,616.2
			C672.2,582.4,611.1,548.7,550,515C605.8,559.1,662.4,601.4,733.4,616.2z"/>
		<path id="XMLID_41_" class="st2" d="M381.7,727.4c7.9,9.2,15.7,18.4,25,29.2c-20.4,16.7-38.6,45.1-68,18
			c-21.7-20.1-13.2-41.8,7.1-58.1c13.6,4.5,25.5,8.4,37.3,12.3C383,728.8,381.7,727.4,381.7,727.4z"/>
		<path id="XMLID_40_" class="st2" d="M479.2,785.2c-17.6,28.9-34.3,51-58.7,27.5c-7-6.8-3.6-24.4-5-37
			C436.8,778.9,458,782.1,479.2,785.2z"/>
		<path id="XMLID_39_" class="st2" d="M287.9,658.1c4.9,4.5,9.7,8.9,14.6,13.4c8.3,11,16.7,21.9,30.5,40.2
			c-17.8,3.2-34.5,11.6-44.1,6.6c-11.3-5.9-19.8-22.9-22.7-36.5C264.9,675.7,280.2,666.1,287.9,658.1z"/>
	</g>
</g>
</svg>
