<svg xmlns="http://www.w3.org/2000/svg" viewBox="0 0 218.2 77">
  <defs>
    <style>
      .a {
        fill: #c6c6c6;
      }

      .b {
        fill: #fff;
      }
    </style>
  </defs>
  <title>jungle_logo</title>
  <g>
    <g>
      <path class="a" d="M5.2,67H4.9l-.3-.3-.5-.3H2.6l-.6.4-.3.6a1.7,1.7,0,0,0-.1.7,1.9,1.9,0,0,0,.2.8,1,1,0,0,0,.4.5l.6.4.8.3.7.3.6.4a1.8,1.8,0,0,1,.5.7,2.5,2.5,0,0,1,.1.9,3.7,3.7,0,0,1-.1,1.1,1.9,1.9,0,0,1-.5.9,1.6,1.6,0,0,1-.8.6,2,2,0,0,1-1.1.3,2,2,0,0,1-1.3-.4,2.8,2.8,0,0,1-1-.9l.2-.2h.2l.2.2.3.3.4.2.4.2H3l.9-.2.6-.4a1.6,1.6,0,0,0,.4-.7,2.8,2.8,0,0,0,.1-.9,1.1,1.1,0,0,0-.2-.8,1,1,0,0,0-.4-.5l-.6-.4L3,70.5l-.7-.3-.6-.4-.5-.7a4.6,4.6,0,0,1,0-1.9,1.8,1.8,0,0,1,.5-.7,2,2,0,0,1,.7-.6l.9-.2a1.8,1.8,0,0,1,1.1.3,1.3,1.3,0,0,1,.9.7Z"/>
      <path class="a" d="M18.9,65.8v.6H16.2v8.8h-.6V66.4H12.8v-.6Z"/>
      <path class="a" d="M29.8,74.7a1.7,1.7,0,0,0,1-.3,2.1,2.1,0,0,0,.8-.6,3,3,0,0,0,.4-1,5,5,0,0,0,.2-1.2V65.8h.6v5.8a5.9,5.9,0,0,1-.2,1.4,6.7,6.7,0,0,1-.6,1.2,3.9,3.9,0,0,1-1,.8,2.4,2.4,0,0,1-1.2.3,2.8,2.8,0,0,1-1.3-.3l-.9-.8A2.3,2.3,0,0,1,27,73a5.9,5.9,0,0,1-.2-1.4V65.8h.6v5.8a4.9,4.9,0,0,0,.1,1.2l.5,1a1.6,1.6,0,0,0,.8.6A1.7,1.7,0,0,0,29.8,74.7Z"/>
      <path class="a" d="M48.2,70.5a5.5,5.5,0,0,1-.2,1.9,5.3,5.3,0,0,1-.8,1.5,2.7,2.7,0,0,1-1.2.9,2.4,2.4,0,0,1-1.5.4H41.6V65.8h2.9a2.4,2.4,0,0,1,1.5.4,2.7,2.7,0,0,1,1.2.9,5.3,5.3,0,0,1,.8,1.5A5.5,5.5,0,0,1,48.2,70.5Zm-.5,0a4.3,4.3,0,0,0-.3-1.7,2.3,2.3,0,0,0-.6-1.3,1.9,1.9,0,0,0-1-.8,2.8,2.8,0,0,0-1.3-.3H42.2v8.2h2.3a2.8,2.8,0,0,0,1.3-.3,1.9,1.9,0,0,0,1-.8,2.6,2.6,0,0,0,.6-1.3A4.7,4.7,0,0,0,47.7,70.5Z"/>
      <path class="a" d="M57.4,75.2h-.5V65.8h.5Z"/>
      <path class="a" d="M73.6,70.5a6.4,6.4,0,0,1-.3,2,10.1,10.1,0,0,1-.7,1.5,4.7,4.7,0,0,1-1.2.9,3.2,3.2,0,0,1-3.1,0L67.1,74a10.1,10.1,0,0,1-.7-1.5,6.8,6.8,0,0,1,0-4,10.1,10.1,0,0,1,.7-1.5l1.2-.9a2.8,2.8,0,0,1,1.5-.4,2.9,2.9,0,0,1,1.6.4,4.7,4.7,0,0,1,1.2.9,10.1,10.1,0,0,1,.7,1.5A6.4,6.4,0,0,1,73.6,70.5Zm-.6,0a9.9,9.9,0,0,0-.2-1.8,5.4,5.4,0,0,0-.7-1.3,2.7,2.7,0,0,0-1-.8,2.8,2.8,0,0,0-1.3-.3,2.4,2.4,0,0,0-1.2.3,2.7,2.7,0,0,0-1,.8,5.4,5.4,0,0,0-.7,1.3,9.9,9.9,0,0,0-.2,1.8,8.8,8.8,0,0,0,.2,1.7,4.6,4.6,0,0,0,.7,1.4,2.7,2.7,0,0,0,1,.8,2.4,2.4,0,0,0,1.2.3,2.8,2.8,0,0,0,1.3-.3,2.7,2.7,0,0,0,1-.8,4.6,4.6,0,0,0,.7-1.4A8.8,8.8,0,0,0,73,70.5Z"/>
      <path class="a" d="M86.6,65.5l.8.2a1.8,1.8,0,0,1,.7.5,1.6,1.6,0,0,1,.4.7,1.9,1.9,0,0,1,.2.7l-.9.3h-.2c-.1,0-.1-.1-.1-.2l-.2-.3V67l-.3-.2h-.8l-.3.2-.2.4v.8c0,.1.1.3.1.4l.2.4.3.4,2.2,2.6.3-.9c0-.3.1-.6.1-.9s0-.2.1-.2h1a4.1,4.1,0,0,1-.2,1.6,3.9,3.9,0,0,1-.6,1.5l1.7,2.1H89.5c-.1,0-.2,0-.2-.1H89a.3.3,0,0,1-.1-.2l-.6-.6a3.6,3.6,0,0,1-1.2.8,3.2,3.2,0,0,1-1.4.3l-.9-.2a1.6,1.6,0,0,1-.8-.6l-.6-.8a4.3,4.3,0,0,1-.2-1.2c0-.3.1-.5.1-.8a1.6,1.6,0,0,1,.4-.7,1.8,1.8,0,0,1,.5-.7l.7-.4a9.3,9.3,0,0,1-.5-1,2.8,2.8,0,0,1-.1-.9,3.1,3.1,0,0,1,.1-1,3.5,3.5,0,0,1,.5-.8,1.8,1.8,0,0,1,.7-.5Zm-2,6.9c0,.2.1.5.1.7l.3.4c.1.2.3.3.4.4H86l.8-.2.8-.5-2.1-2.6a2.7,2.7,0,0,0-.7.8A2.9,2.9,0,0,0,84.6,72.4Z"/>
      <path class="a" d="M105.3,73.6h.1l.2.3-.5.6-.7.4-.7.3h-.9a2.4,2.4,0,0,1-1.5-.4,2.7,2.7,0,0,1-1.2-.9,5.1,5.1,0,0,1-.7-1.5,6.4,6.4,0,0,1-.3-2,5.4,5.4,0,0,1,.3-1.9,4.8,4.8,0,0,1,.8-1.6,2.7,2.7,0,0,1,1.2-.9,2.6,2.6,0,0,1,1.5-.4h.8l.7.2.6.4.5.5-.2.3h-.2l-.2-.2-.3-.2-.4-.3h-1.3a3.1,3.1,0,0,0-1.3.3,3.9,3.9,0,0,0-1,.8,4.6,4.6,0,0,0-.7,1.4,4.7,4.7,0,0,0-.2,1.7,5.2,5.2,0,0,0,.2,1.8,5.4,5.4,0,0,0,.7,1.3,2.7,2.7,0,0,0,1,.8,2.4,2.4,0,0,0,1.2.3h.8l.6-.2.5-.3c.2-.1.3-.3.5-.5h.1Z"/>
      <path class="a" d="M120,70.5a6.4,6.4,0,0,1-.3,2,5.5,5.5,0,0,1-.8,1.5,3.1,3.1,0,0,1-1.1.9,3.2,3.2,0,0,1-3.1,0,4.7,4.7,0,0,1-1.2-.9,5.1,5.1,0,0,1-.7-1.5,6.8,6.8,0,0,1,0-4,5.1,5.1,0,0,1,.7-1.5,4.7,4.7,0,0,1,1.2-.9,2.8,2.8,0,0,1,1.5-.4,2.9,2.9,0,0,1,1.6.4,3.1,3.1,0,0,1,1.1.9,5.5,5.5,0,0,1,.8,1.5A6.4,6.4,0,0,1,120,70.5Zm-.6,0a9.9,9.9,0,0,0-.2-1.8,5.4,5.4,0,0,0-.7-1.3,2.7,2.7,0,0,0-1-.8,2.8,2.8,0,0,0-1.3-.3,2.4,2.4,0,0,0-1.2.3,2.7,2.7,0,0,0-1,.8,5.4,5.4,0,0,0-.7,1.3,5.2,5.2,0,0,0-.2,1.8,4.7,4.7,0,0,0,.2,1.7,4.6,4.6,0,0,0,.7,1.4,2.7,2.7,0,0,0,1,.8,2.4,2.4,0,0,0,1.2.3,2.8,2.8,0,0,0,1.3-.3,2.7,2.7,0,0,0,1-.8,4.6,4.6,0,0,0,.7-1.4A8.8,8.8,0,0,0,119.4,70.5Z"/>
      <path class="a" d="M127.4,65.8h.4a.2.2,0,0,1,.2.2l2,7.7V74a.4.4,0,0,1,.1-.3l2.2-7.7h.1a.1.1,0,0,1,.1-.1h.3l2.3,7.7V74c.1,0,.1.2.1.3V74a.4.4,0,0,0,.1-.3l2-7.7h.1a.1.1,0,0,1,.1-.1h.4l-2.4,9.4h-.6l-2.3-8.1a.6.6,0,0,0-.1-.4v.4l-2.4,8.1h-.5Z"/>
      <path class="a" d="M152,70.5a6.4,6.4,0,0,1-.3,2A5.1,5.1,0,0,1,151,74l-1.2.9a3.2,3.2,0,0,1-3.1,0,3.1,3.1,0,0,1-1.1-.9,5.5,5.5,0,0,1-.8-1.5,6.8,6.8,0,0,1,0-4,5.5,5.5,0,0,1,.8-1.5,3.1,3.1,0,0,1,1.1-.9,2.9,2.9,0,0,1,1.6-.4,2.8,2.8,0,0,1,1.5.4l1.2.9a5.1,5.1,0,0,1,.7,1.5A6.4,6.4,0,0,1,152,70.5Zm-.6,0a9.9,9.9,0,0,0-.2-1.8,5.4,5.4,0,0,0-.7-1.3,2.7,2.7,0,0,0-1-.8,2.4,2.4,0,0,0-1.2-.3,2.8,2.8,0,0,0-1.3.3,3.9,3.9,0,0,0-1,.8,5.4,5.4,0,0,0-.7,1.3,9.9,9.9,0,0,0-.2,1.8,8.8,8.8,0,0,0,.2,1.7,4.6,4.6,0,0,0,.7,1.4,3.9,3.9,0,0,0,1,.8,2.8,2.8,0,0,0,1.3.3,2.4,2.4,0,0,0,1.2-.3,2.7,2.7,0,0,0,1-.8,4.6,4.6,0,0,0,.7-1.4A8.8,8.8,0,0,0,151.4,70.5Z"/>
      <path class="a" d="M161.2,70.9v4.3h-.6V65.8h2a2.8,2.8,0,0,1,2.1.7,2.4,2.4,0,0,1,.6,1.8,3.4,3.4,0,0,1-.1,1,1.8,1.8,0,0,1-.5.7,2,2,0,0,1-.7.6l-.9.3.2.2,2.7,4.1h-.7l-2.6-3.8a.2.2,0,0,0-.2-.2h-1.3Zm0-.5h2.3l.7-.4a1.6,1.6,0,0,0,.4-.7,2.9,2.9,0,0,0,.2-.9,2,2,0,0,0-.6-1.5,2.4,2.4,0,0,0-1.6-.4h-1.4Z"/>
      <path class="a" d="M174.8,70.1h1L179,66h.2a.1.1,0,0,1,.1-.1h.5L176.4,70l-.2.2H176l.2.2c.1,0,.1.1.2.2l3.6,4.5h-.8l-3.3-4.1a.1.1,0,0,1-.1-.1h-1v4.5h-.6V65.8h.6Z"/>
      <path class="a" d="M188.8,75.2h-.6V65.8h.6Z"/>
      <path class="a" d="M198.3,65.9h.1l5.1,8V65.8h.5v9.4h-.3a.2.2,0,0,1-.2-.2l-5.1-8.1v8.3h-.5V65.8h.3A.1.1,0,0,1,198.3,65.9Z"/>
      <path class="a" d="M215.3,74.7h.7l.6-.2.6-.2.5-.3V71.4H216v-.4h2.2v3.3l-.6.5-.7.3-.8.2h-.9a2.6,2.6,0,0,1-1.5-.4,2.7,2.7,0,0,1-1.2-.9,5.5,5.5,0,0,1-.8-1.5,6.8,6.8,0,0,1,0-4,3.6,3.6,0,0,1,.8-1.5,2.7,2.7,0,0,1,1.2-.9,3.3,3.3,0,0,1,1.7-.4h.8l.7.2.6.4.6.4-.2.3a.1.1,0,0,1-.1.1h-.1l-.3-.2-.4-.3-.7-.3h-1a2.8,2.8,0,0,0-1.3.3,3.1,3.1,0,0,0-1.1.8,5.4,5.4,0,0,0-.7,1.3,8.2,8.2,0,0,0,0,3.6,5.4,5.4,0,0,0,.7,1.3,2.5,2.5,0,0,0,1,.8A3.2,3.2,0,0,0,215.3,74.7Z"/>
    </g>
    <path class="b" d="M96.7,33.3h-.2l-.5-.8c-5.6-9.7-11.2-19.2-16.6-29C78.1,1.4,76.8.3,74.2.7A29.4,29.4,0,0,1,70,.7V49.8h7.6V17.1a2,2,0,0,1,.8.8c1.7,3.1,3.5,6.2,5.3,9.3L96.2,49c.2.3.5.8.8.9h7.4V.8H96.7ZM26.4.7V36.3a21.7,21.7,0,0,0,.2,3.6A11.1,11.1,0,0,0,31.9,48,19.2,19.2,0,0,0,45,50a13.7,13.7,0,0,0,7.7-4c2.5-2.6,3.2-6,3.2-9.5V1.8a3.1,3.1,0,0,0-.1-1H48.2V2.1c0,10.4.1,20.7,0,31a27.8,27.8,0,0,1-.7,5.7,4.3,4.3,0,0,1-3.2,3.6,12,12,0,0,1-3.8.4c-3.9-.2-5.4-1.5-6.2-5.1a19.5,19.5,0,0,1-.3-3.4V.7ZM133,28.9c.7,2,1.3,3.9,1.9,5.8s.7,1.7,1.9,1.5a4.5,4.5,0,0,1,2,0c.2,0,.6.3.6.5a5.2,5.2,0,0,1-3.5,5.7,10.4,10.4,0,0,1-5.8.1c-2.8-.7-4.1-2.2-4.1-5.1-.1-8-.1-16.1,0-24.1,0-2.6,1.2-4,3.7-4.8a15.5,15.5,0,0,1,8.8.5c.9.3,1.1.1,1.4-.7s1-3.3,1.6-4.9.1-1.1-.6-1.4A22.1,22.1,0,0,0,132.1.1c-2.9.1-5.7.4-8.2,2.1s-5.5,6.8-5.6,11.4c-.1,7.9-.1,15.9,0,23.8.1,5.4,2.5,9.4,7.4,11.6a16.9,16.9,0,0,0,12.7.6c.4,0,.7-.2,1-.1a22.3,22.3,0,0,0,2.3.4h5.4v-21Zm69.6-.7H209a1.2,1.2,0,0,0,1.4-1.1c.4-1.8,1-3.5,1.5-5.2s.1-.7.2-1.1h-9.5V8.4h15.6V.8H194.9v49H218V42.9H202.6ZM160.6.8v49h25.2v-7H168.1V.8ZM.2,46q1.2,3.2,2.4,6a1.1,1.1,0,0,0,.9.5l3.7-.4c2.9-.6,5.5-1.7,6.6-4.7a14.5,14.5,0,0,0,1.1-5c.2-13.6.1-27.2.2-40.7,0-.3-.1-.6-.1-.9H3.4V8.1l4.1.3v.4c0,10.3.1,20.6,0,30.9,0,3.2-1.8,5.2-4.8,6Z"/>
  </g>
</svg>
