<?xml version="1.0" standalone="no"?>
<!DOCTYPE svg PUBLIC "-//W3C//DTD SVG 20010904//EN"
 "http://www.w3.org/TR/2001/REC-SVG-20010904/DTD/svg10.dtd">
<svg version="1.0" xmlns="http://www.w3.org/2000/svg"
 width="544.000000pt" height="544.000000pt" viewBox="0 0 544.000000 544.000000"
 preserveAspectRatio="xMidYMid meet">
<metadata>
Created by potrace 1.11, written by Peter Selinger 2001-2013
</metadata>
<g transform="translate(0.000000,544.000000) scale(0.100000,-0.100000)"
fill="#000000" stroke="none">
<path d="M2464 5423 c7 -13 -6 -17 -55 -13 -14 0 -31 -5 -37 -12 -6 -8 -24
-13 -39 -12 -15 0 -31 -4 -35 -10 -5 -7 -8 -6 -8 3 0 10 -3 11 -13 3 -7 -6
-22 -11 -32 -11 -42 -1 -85 -14 -78 -24 4 -6 0 -8 -9 -4 -9 3 -24 -1 -35 -8
-10 -8 -22 -14 -28 -15 -5 0 -3 5 5 10 12 7 10 9 -7 7 -12 0 -19 -5 -17 -9 3
-4 0 -8 -5 -8 -6 0 -11 6 -11 13 0 7 -3 8 -8 2 -4 -5 -18 -11 -32 -12 -50 -3
-70 -7 -70 -15 0 -4 -9 -5 -20 -3 -12 2 -18 0 -14 -6 4 -7 -5 -9 -24 -6 -21 4
-32 0 -36 -10 -4 -8 -13 -13 -21 -9 -8 3 -15 0 -15 -7 0 -8 -4 -6 -10 3 -7 12
-10 12 -10 1 0 -7 -6 -11 -13 -8 -7 3 -21 -1 -31 -9 -11 -7 -22 -11 -26 -9 -4
3 -13 -2 -20 -10 -6 -7 -18 -11 -26 -8 -8 3 -14 0 -14 -6 0 -6 -6 -11 -14 -11
-8 0 -31 -9 -50 -21 -20 -12 -36 -18 -36 -14 0 4 -7 2 -15 -5 -8 -7 -12 -17
-9 -22 4 -6 -2 -8 -15 -3 -15 5 -21 2 -21 -9 0 -9 -7 -16 -15 -16 -8 0 -15 -4
-15 -10 0 -5 -8 -10 -17 -10 -15 0 -16 2 -3 10 8 5 10 10 4 10 -16 0 -35 -25
-26 -36 4 -4 -2 -2 -13 6 -11 8 -17 11 -13 6 10 -12 -15 -34 -31 -28 -9 3 -12
1 -7 -6 4 -7 1 -12 -8 -12 -9 0 -16 -4 -16 -10 0 -5 -12 -10 -26 -10 -14 0
-23 -4 -20 -9 7 -11 -20 -35 -32 -27 -5 3 -15 -6 -22 -19 -9 -17 -17 -22 -25
-15 -7 6 -17 1 -29 -15 -11 -14 -25 -25 -32 -25 -8 0 -14 -4 -14 -10 0 -5 -7
-10 -16 -10 -8 0 -13 -4 -10 -9 7 -11 -22 -23 -35 -15 -5 3 -8 0 -7 -8 2 -7
-5 -12 -14 -12 -11 1 -14 -4 -10 -14 4 -11 1 -14 -11 -9 -12 4 -14 2 -10 -10
4 -11 2 -14 -5 -9 -8 4 -12 0 -12 -11 0 -15 -2 -16 -10 -3 -6 10 -10 11 -10 3
0 -7 -6 -13 -13 -13 -8 0 -20 -11 -27 -25 -7 -13 -16 -23 -19 -21 -3 2 -15 -6
-26 -17 -11 -11 -13 -16 -5 -12 8 5 4 -3 -10 -18 -25 -27 -47 -37 -34 -15 4 7
3 8 -4 4 -6 -4 -8 -14 -5 -23 4 -11 3 -14 -5 -9 -7 4 -12 2 -12 -4 0 -19 -60
-69 -76 -63 -7 3 -14 0 -14 -7 0 -6 5 -8 10 -5 15 9 12 -4 -4 -21 -18 -17 -30
-18 -20 -1 5 8 2 8 -9 -2 -18 -15 -23 -26 -7 -16 23 14 8 -10 -25 -39 -55 -50
-63 -55 -69 -49 -6 6 -10 -16 -9 -45 1 -8 -6 -12 -16 -9 -13 3 -17 -2 -15 -25
2 -24 0 -27 -12 -17 -12 10 -13 9 -8 -5 3 -9 1 -16 -5 -16 -6 0 -11 -7 -11
-15 0 -8 -6 -15 -14 -15 -10 0 -13 -7 -11 -20 2 -11 1 -19 -3 -17 -10 6 -41
-30 -34 -39 4 -4 -2 -4 -12 0 -16 5 -17 4 -6 -9 7 -8 8 -15 3 -15 -6 0 -18
-15 -28 -34 -11 -19 -22 -33 -26 -30 -4 2 -5 -5 -2 -16 4 -14 0 -20 -11 -20
-9 0 -15 -6 -14 -12 2 -7 -3 -12 -11 -10 -12 3 -12 0 -2 -12 11 -13 10 -17
-10 -25 -14 -6 -17 -10 -9 -11 13 -1 13 -2 -1 -13 -9 -7 -15 -20 -13 -30 1
-12 -2 -17 -11 -13 -8 3 -12 -2 -11 -12 3 -20 -15 -42 -29 -34 -5 2 -5 -1 2
-8 9 -10 8 -16 -3 -27 -8 -8 -12 -19 -9 -24 4 -5 -1 -9 -10 -9 -9 0 -13 -5
-10 -10 4 -6 1 -17 -5 -25 -6 -8 -9 -19 -5 -25 3 -5 3 -10 -2 -10 -4 0 -13
-11 -20 -25 -8 -19 -8 -24 0 -19 7 3 1 -4 -12 -15 -13 -12 -18 -21 -12 -21 8
0 7 -7 -3 -21 -8 -12 -12 -28 -9 -36 3 -8 0 -13 -8 -11 -8 2 -13 -3 -11 -11 1
-7 -2 -19 -8 -25 -5 -7 -7 -16 -3 -19 3 -4 0 -7 -8 -7 -11 0 -11 -2 1 -10 10
-6 11 -10 3 -10 -8 0 -13 -14 -13 -34 0 -19 -4 -38 -10 -41 -5 -3 -10 -17 -10
-31 0 -13 -4 -24 -10 -24 -5 0 -10 -12 -10 -26 0 -17 -4 -23 -12 -18 -8 5 -8
1 1 -10 10 -11 11 -20 4 -24 -14 -10 -23 -52 -11 -52 5 0 2 -7 -6 -16 -10 -10
-16 -33 -16 -64 0 -27 -4 -51 -10 -55 -5 -3 -6 -13 -3 -22 5 -12 3 -14 -8 -8
-12 7 -12 6 -1 -7 9 -11 10 -18 2 -23 -7 -4 -7 -12 0 -25 7 -13 6 -22 -3 -32
-7 -7 -12 -28 -11 -46 0 -18 -3 -35 -8 -38 -4 -3 -8 -32 -8 -65 0 -40 -4 -59
-12 -59 -9 0 -10 -2 -2 -8 14 -9 16 -64 2 -56 -6 4 -5 -3 1 -14 13 -25 14 -35
3 -28 -5 3 -7 -5 -6 -17 1 -12 3 -22 5 -22 1 0 3 -36 5 -80 6 -142 9 -180 17
-192 4 -6 1 -13 -5 -16 -10 -4 -11 -7 -1 -18 7 -7 13 -28 13 -47 0 -18 5 -43
11 -54 8 -16 8 -19 -1 -13 -9 6 -9 2 -1 -14 7 -12 9 -26 6 -31 -3 -5 3 -15 13
-22 27 -19 33 -45 16 -63 -10 -10 -11 -15 -4 -15 7 0 10 -8 7 -20 -3 -13 0
-20 10 -20 8 0 11 -5 8 -10 -3 -6 2 -10 12 -10 15 0 16 -2 3 -10 -13 -8 -12
-10 3 -10 10 0 25 -7 33 -15 11 -10 12 -15 3 -15 -8 0 -5 -8 6 -20 14 -16 20
-17 27 -8 5 9 8 8 8 -5 0 -10 4 -15 10 -12 5 3 10 -1 10 -9 0 -8 9 -20 20 -26
12 -7 18 -16 13 -23 -5 -9 -3 -9 8 0 12 10 14 4 14 -37 0 -26 -3 -46 -7 -43
-17 10 -6 -18 14 -37 12 -11 17 -20 10 -20 -6 0 -9 -9 -7 -20 2 -11 1 -20 -3
-20 -4 0 -8 -9 -8 -20 0 -11 4 -20 8 -20 4 0 8 -7 8 -15 0 -8 5 -15 11 -15 6
0 9 -9 6 -20 -3 -11 1 -27 9 -35 8 -8 15 -17 14 -20 -2 -42 2 -65 11 -59 7 4
7 -1 -1 -16 -7 -12 -8 -20 -3 -17 4 3 13 -6 20 -19 8 -18 8 -22 0 -17 -8 4 -8
2 0 -9 7 -8 10 -18 6 -21 -3 -4 -1 -7 6 -7 7 0 9 -4 6 -10 -3 -5 -2 -10 3 -10
6 0 13 -7 16 -16 4 -9 2 -13 -5 -8 -8 4 -7 0 0 -15 7 -11 14 -21 17 -21 3 0 2
6 -2 12 -4 7 2 3 14 -8 11 -12 22 -32 24 -45 1 -13 13 -28 26 -34 14 -6 22
-18 22 -33 0 -13 4 -20 10 -17 6 3 10 1 10 -4 0 -6 10 -11 21 -11 19 0 20 -2
8 -17 -10 -11 -10 -14 -1 -9 6 4 12 2 12 -3 0 -6 6 -10 13 -8 6 1 11 -4 9 -11
-1 -8 1 -11 6 -8 4 2 14 1 22 -5 11 -6 12 -9 2 -9 -7 0 -10 -5 -7 -10 4 -6 11
-8 16 -5 5 4 9 -3 9 -14 0 -15 5 -19 21 -16 12 3 19 0 16 -8 -6 -18 40 -57 68
-57 23 0 25 -3 25 -45 0 -29 4 -45 13 -45 8 0 7 -4 -3 -10 -12 -8 -12 -10 -1
-10 8 0 11 -7 8 -20 -3 -14 3 -27 21 -42 21 -16 23 -20 7 -15 -15 5 -14 2 5
-11 14 -9 56 -47 93 -84 37 -37 71 -67 75 -67 20 3 23 -3 11 -18 -7 -10 -10
-15 -5 -11 4 3 16 -2 27 -13 11 -11 25 -17 31 -13 7 5 9 2 5 -9 -4 -11 1 -18
14 -22 10 -4 17 -10 14 -15 -3 -5 3 -7 15 -5 11 2 23 -1 26 -7 5 -7 2 -8 -6
-3 -9 6 -11 4 -6 -4 5 -7 15 -10 23 -7 8 3 11 1 8 -4 -3 -6 -1 -10 5 -10 6 0
8 -5 4 -12 -6 -10 -4 -10 8 0 13 11 20 8 42 -18 14 -18 26 -28 26 -23 0 4 4 2
9 -5 6 -10 10 -7 15 12 4 16 11 24 18 20 6 -4 9 -1 6 7 -5 15 22 50 34 43 4
-3 8 0 8 6 0 17 26 40 45 40 9 0 13 4 10 10 -3 5 3 17 15 27 11 10 20 24 20
33 0 13 1 13 10 0 8 -13 10 -12 10 3 0 10 4 16 9 12 6 -3 13 0 18 7 4 7 17 18
28 25 11 6 19 16 18 22 -2 6 0 10 5 10 24 -4 42 2 36 13 -5 8 -2 9 10 5 9 -4
15 -3 12 1 -3 5 4 14 14 22 10 8 16 18 13 24 -4 6 2 4 12 -4 10 -8 16 -10 13
-5 -4 6 2 17 14 24 16 10 19 10 12 -1 -4 -7 2 -4 14 6 27 23 28 27 5 19 -23
-8 -14 1 16 17 19 10 22 10 16 -2 -4 -7 3 -2 15 12 17 19 20 20 16 6 -5 -15
-2 -15 18 5 14 13 21 26 16 29 -5 3 2 10 16 17 18 8 22 8 17 0 -3 -7 6 1 20
16 15 15 32 25 37 22 6 -3 10 -2 10 4 0 5 13 18 29 27 17 10 28 21 26 25 -3 4
5 9 16 12 11 3 23 15 26 26 3 12 11 17 19 14 10 -4 12 0 8 11 -4 10 0 18 10
22 13 5 14 9 5 20 -9 12 -9 13 3 9 9 -4 18 1 22 10 3 10 11 13 18 9 9 -5 8 -2
-1 10 -8 9 -10 16 -5 14 5 -2 20 8 33 21 16 16 26 20 33 13 6 -6 16 -8 22 -6
7 3 13 -7 14 -21 1 -19 -2 -24 -11 -19 -7 5 -7 1 2 -10 12 -15 12 -17 0 -14
-8 2 -13 -2 -12 -9 2 -6 -4 -24 -12 -40 -8 -15 -15 -21 -15 -13 -1 8 -12 -5
-25 -30 -13 -25 -24 -39 -25 -31 0 9 -7 6 -20 -9 -11 -12 -17 -27 -13 -33 3
-5 1 -7 -5 -3 -6 3 -23 -5 -39 -20 -15 -14 -21 -22 -13 -18 8 3 4 -5 -10 -18
-14 -14 -29 -23 -35 -20 -5 3 -3 -3 5 -13 9 -11 10 -16 3 -11 -8 4 -13 2 -13
-4 0 -17 -26 -40 -35 -32 -5 4 -5 2 -1 -5 3 -6 2 -14 -4 -18 -6 -4 -8 -10 -5
-15 3 -5 0 -12 -6 -16 -8 -4 -9 -3 -5 4 4 7 2 12 -3 12 -6 0 -11 -4 -11 -10 0
-17 -3 -25 -17 -38 -7 -8 -11 -18 -8 -23 4 -5 -2 -6 -11 -2 -13 5 -16 3 -11
-10 6 -15 -3 -21 -24 -19 -4 1 -4 -8 -1 -20 3 -14 1 -19 -6 -14 -7 4 -12 1
-12 -9 0 -9 -4 -13 -10 -10 -5 3 -10 1 -10 -5 0 -6 -4 -8 -10 -5 -6 3 -7 -1
-4 -9 3 -9 1 -16 -6 -16 -6 0 -8 -4 -5 -10 3 -5 -1 -10 -10 -10 -11 0 -15 -5
-11 -15 3 -8 0 -14 -7 -12 -7 1 -13 -10 -15 -25 -2 -20 -7 -25 -19 -21 -11 4
-14 2 -9 -5 4 -7 2 -12 -3 -12 -6 0 -11 -7 -11 -15 0 -8 -5 -15 -12 -15 -6 0
-9 -3 -6 -6 8 -8 -37 -54 -53 -54 -8 0 -10 -3 -4 -8 11 -8 15 -30 16 -86 0
-41 12 -59 44 -64 11 -2 23 -9 26 -14 4 -7 9 -6 13 1 9 14 37 -10 28 -24 -3
-5 3 -3 13 5 11 9 16 10 11 3 -5 -9 0 -13 13 -13 12 0 21 -4 21 -10 0 -5 12
-10 26 -10 14 0 23 -4 20 -8 -2 -4 4 -9 15 -10 43 -4 49 -6 49 -14 0 -5 4 -7
9 -4 5 4 11 1 13 -6 2 -6 14 -12 26 -13 18 -1 20 1 10 14 -7 9 0 5 14 -8 15
-12 31 -20 37 -16 6 3 11 1 11 -6 0 -6 8 -9 20 -6 13 3 18 1 13 -6 -4 -6 0 -8
10 -4 9 3 23 0 31 -8 16 -16 30 -20 22 -6 -9 14 28 8 37 -6 4 -7 15 -9 24 -6
10 4 14 2 10 -4 -3 -5 3 -9 16 -8 12 1 25 -2 28 -7 3 -4 24 -9 47 -11 23 -1
42 -5 42 -8 0 -6 10 -8 65 -10 19 0 35 -6 35 -13 0 -7 3 -8 8 -1 8 12 22 13
40 2 6 -5 12 -4 12 1 0 5 7 9 15 9 8 0 15 -5 15 -10 0 -5 7 -4 15 3 12 10 15
10 15 -1 0 -11 2 -11 10 1 5 8 10 10 10 5 0 -6 9 -16 21 -23 12 -8 18 -9 15
-4 -3 6 12 10 34 10 22 1 38 -3 36 -7 -3 -4 56 -8 132 -9 98 -1 138 2 144 11
6 9 8 9 8 -2 0 -10 3 -11 14 -2 9 8 16 8 20 2 4 -6 23 -3 51 9 30 13 47 16 51
8 4 -7 9 -6 15 3 7 12 9 12 9 0 0 -11 3 -11 17 0 15 12 16 12 8 -1 -7 -13 -6
-13 7 -2 12 9 18 10 23 2 5 -8 11 -8 21 1 8 6 23 9 33 6 15 -4 19 0 16 14 -2
11 0 17 6 14 12 -8 42 22 34 35 -4 6 -3 10 2 9 4 -1 17 -1 28 1 20 1 20 2 0 9
-17 7 -17 8 8 15 15 3 25 11 22 16 -4 6 1 7 11 3 11 -4 15 -3 10 5 -4 7 1 10
13 7 13 -2 22 3 26 16 4 10 13 19 21 19 8 0 14 6 14 13 0 9 2 9 8 1 5 -9 11
-8 20 2 7 8 10 14 7 14 -3 0 5 10 18 22 25 24 28 74 4 91 -9 6 -9 10 1 14 10
4 10 8 0 21 -10 12 -10 14 0 8 6 -4 12 -2 12 3 0 6 7 11 16 11 8 0 12 5 9 10
-3 6 -1 10 4 10 8 0 11 66 11 201 0 119 4 208 10 220 8 14 7 19 -1 19 -8 0 -7
5 2 17 8 9 9 14 3 10 -6 -3 -11 0 -11 8 0 8 5 13 11 12 6 -1 10 3 9 9 -1 6 8
12 21 12 24 0 28 -12 13 -35 -6 -9 -3 -11 10 -7 17 5 17 5 1 -8 -12 -10 -13
-19 -7 -31 6 -9 6 -17 2 -17 -4 0 -1 -5 7 -10 12 -8 12 -10 1 -10 -11 0 -11
-3 -1 -15 7 -8 9 -15 5 -15 -4 0 -1 -8 6 -17 12 -14 12 -16 0 -8 -11 6 -12 5
-5 -6 11 -18 16 -91 5 -85 -4 3 -8 -1 -8 -9 0 -8 4 -15 8 -15 4 0 8 -30 8 -66
0 -37 5 -72 10 -77 13 -13 15 -30 2 -23 -10 7 -8 -9 4 -38 5 -12 3 -21 -6 -27
-8 -5 -9 -9 -3 -9 11 0 14 -13 15 -57 1 -13 5 -21 9 -18 11 7 7 -29 -5 -37 -6
-5 -5 -8 4 -8 8 0 11 -7 8 -20 -3 -11 0 -20 6 -20 6 0 7 -3 4 -7 -4 -3 -1 -13
6 -21 10 -13 9 -14 -3 -7 -13 8 -13 7 -1 -8 8 -11 9 -17 3 -17 -6 0 -9 -6 -6
-14 6 -15 21 -16 42 -3 6 5 12 6 12 3 0 -3 12 1 27 9 15 8 30 12 35 9 4 -3 8
0 8 5 0 6 12 11 27 11 14 0 24 3 20 6 -3 4 1 13 9 22 11 10 12 18 5 25 -13 13
-15 30 -3 23 15 -9 6 51 -11 78 -11 16 -13 27 -6 31 7 5 7 11 -1 20 -8 10 -7
14 2 18 10 3 10 9 2 24 -8 13 -9 25 -2 38 7 12 7 16 0 11 -7 -4 -10 4 -10 21
1 16 -2 38 -6 50 -4 12 -3 24 2 27 5 3 7 16 5 30 -3 13 0 34 7 46 7 13 8 20 1
16 -12 -8 -27 20 -26 49 0 11 6 21 13 21 6 1 16 2 21 3 6 0 16 13 24 28 7 16
19 27 25 26 7 -2 12 4 12 13 0 8 5 12 10 9 6 -3 14 4 19 17 6 13 10 19 10 14
1 -5 12 3 26 18 13 14 29 26 35 26 6 0 9 4 6 9 -3 5 2 15 11 22 12 10 14 10 9
2 -4 -7 -5 -13 -1 -13 3 0 10 12 15 26 8 20 15 24 31 19 15 -5 19 -4 15 4 -4
6 0 11 9 11 9 0 13 4 10 10 -3 5 -1 10 5 10 6 0 8 4 5 10 -3 5 0 7 8 4 8 -3
18 -1 22 5 3 6 17 11 31 11 13 0 24 5 24 11 0 5 5 7 12 3 8 -5 9 -2 5 10 -5
12 -3 16 5 13 26 -9 134 65 122 84 -3 5 3 6 13 2 10 -3 15 -3 11 2 -8 9 15 35
31 35 6 0 12 7 12 15 3 32 4 36 17 44 9 5 10 14 3 32 -5 13 -10 20 -10 16 -1
-12 -31 19 -31 32 0 6 -10 11 -22 11 -19 0 -20 2 -8 10 10 6 11 10 3 10 -7 0
-13 5 -13 11 0 14 -26 39 -40 39 -6 0 -8 5 -5 10 3 6 1 10 -5 10 -6 0 -8 5 -5
10 3 6 -1 10 -9 10 -9 0 -16 4 -16 8 0 5 -13 22 -30 38 -16 16 -30 37 -30 47
0 9 -7 17 -16 17 -8 0 -12 5 -9 10 3 6 1 10 -4 10 -6 0 -11 7 -11 15 0 8 -4
15 -10 15 -5 0 -10 9 -10 20 0 11 -5 20 -11 20 -5 0 -7 5 -4 10 3 6 -1 10 -9
10 -9 0 -16 8 -16 18 -1 19 -28 59 -37 54 -3 -2 -13 7 -21 21 -16 25 -10 63 8
52 6 -4 7 -11 4 -17 -4 -6 2 -6 15 1 14 8 21 8 21 1 0 -5 6 -10 14 -10 7 0 19
-7 26 -15 7 -8 16 -12 21 -10 4 3 25 -11 46 -31 21 -20 31 -34 23 -30 -9 5 -9
2 2 -7 10 -8 14 -17 10 -21 -4 -4 -2 -7 3 -6 21 5 36 0 30 -10 -3 -6 1 -10 10
-10 9 0 13 -4 10 -10 -3 -5 1 -10 9 -10 18 0 39 -34 28 -45 -4 -5 -2 -5 5 -1
15 8 117 -89 108 -104 -3 -5 1 -10 10 -10 9 0 13 -5 10 -10 -3 -5 -3 -10 2
-11 4 0 16 -2 26 -4 9 -2 17 3 17 11 0 8 3 13 8 13 18 -3 35 2 29 8 -8 7 34
39 47 35 5 -2 6 4 2 13 -3 9 -2 13 4 10 13 -8 43 40 43 70 0 14 3 25 8 25 5 0
9 10 9 23 0 18 2 19 10 7 8 -12 10 -9 10 12 0 35 10 59 21 52 5 -3 9 -1 9 5 0
13 41 10 60 -4 22 -18 50 -26 50 -15 0 5 7 7 15 4 9 -4 15 0 15 10 0 9 7 16
15 16 8 0 15 8 15 18 0 10 3 22 7 26 10 9 13 37 4 31 -4 -2 -8 2 -8 10 0 8 2
13 5 11 7 -7 31 18 25 27 -2 4 3 7 11 7 10 0 13 6 10 15 -4 8 -1 15 6 15 6 0
9 4 6 9 -3 5 1 11 9 15 8 3 15 12 15 21 0 8 9 15 21 15 11 0 17 5 14 10 -4 6
-3 10 2 9 21 -4 31 3 42 27 10 22 9 30 -6 47 -10 11 -13 17 -6 14 8 -5 8 -1 0
17 -7 13 -15 22 -19 20 -3 -2 -13 2 -21 10 -8 8 -17 12 -21 9 -3 -4 -6 -1 -6
7 0 7 -15 26 -32 42 -18 17 -26 27 -18 23 8 -5 -2 8 -22 27 -21 20 -38 43 -38
52 0 9 -7 16 -15 16 -13 0 -16 4 -15 25 1 11 -25 33 -32 28 -5 -2 -8 3 -8 12
0 8 -13 29 -30 47 -16 17 -30 36 -30 42 0 6 5 4 11 -4 9 -13 10 -13 6 0 -2 8
-10 14 -17 12 -6 -1 -14 7 -17 18 -3 11 -12 20 -19 20 -8 0 -13 6 -11 13 1 6
-4 11 -11 9 -8 -1 -11 2 -8 7 4 5 2 12 -4 16 -6 4 -8 11 -5 16 4 5 0 9 -8 9
-8 0 -17 9 -20 20 -3 11 -9 20 -14 19 -20 -3 -27 2 -13 11 10 6 11 10 3 10 -7
0 -13 6 -13 13 0 7 -9 19 -20 27 -11 8 -20 24 -20 35 0 17 -2 18 -11 5 -9 -12
-10 -11 -6 8 4 15 0 22 -10 22 -8 0 -11 5 -8 10 3 6 -2 10 -11 10 -10 0 -15 3
-11 6 3 4 -1 13 -9 21 -8 9 -13 22 -10 29 3 8 0 11 -10 7 -8 -3 -14 1 -14 11
0 9 -7 16 -16 16 -8 0 -13 4 -9 9 3 5 1 12 -5 16 -6 4 -8 11 -5 16 4 5 -1 9
-9 9 -9 0 -16 6 -16 14 0 7 -14 27 -30 45 -17 17 -28 36 -25 41 3 6 -1 10 -10
10 -9 0 -13 5 -10 10 3 6 1 10 -4 10 -6 0 -11 7 -11 15 0 8 -3 14 -7 14 -24
-4 -35 3 -29 17 4 11 -1 18 -14 21 -11 3 -17 9 -14 14 3 5 -1 12 -10 15 -8 3
-12 12 -9 20 3 8 0 14 -7 14 -14 0 -40 25 -40 39 0 6 -7 11 -16 11 -8 0 -12 5
-9 10 5 9 0 11 -21 9 -4 0 -12 10 -18 23 -7 13 -19 22 -28 22 -10 -1 -14 4
-11 12 3 8 0 14 -7 14 -6 0 -9 4 -6 9 4 5 -7 15 -23 22 -16 7 -27 17 -25 21 3
4 -4 8 -15 8 -12 0 -21 5 -21 11 0 5 -4 8 -9 4 -5 -3 -16 2 -24 10 -12 11 -17
12 -21 2 -3 -9 -9 -7 -19 6 -8 9 -19 17 -24 17 -6 0 -10 12 -9 28 1 29 20 36
45 18 12 -9 13 -8 6 4 -6 12 -5 13 6 3 7 -7 23 -13 36 -13 26 0 75 -20 85 -35
5 -6 8 -4 8 5 0 12 2 12 9 2 4 -7 18 -14 29 -15 12 -1 22 -8 22 -15 0 -9 7
-12 20 -9 13 3 20 0 20 -9 0 -8 5 -14 10 -14 6 0 10 -7 10 -16 0 -10 5 -14 16
-10 8 3 12 2 9 -4 -6 -9 8 -14 28 -11 5 1 6 -3 2 -9 -3 -6 -12 -7 -18 -3 -7 3
-4 -3 7 -15 10 -12 22 -19 27 -17 4 3 16 -6 28 -20 11 -15 23 -27 28 -28 4 -1
7 -6 5 -11 -2 -5 4 -3 13 4 9 7 15 9 14 4 -4 -22 2 -45 10 -40 5 3 11 -1 15
-9 3 -8 12 -15 21 -15 8 0 15 -5 15 -11 0 -13 23 -33 55 -50 20 -10 20 -10 1
5 -11 9 -15 16 -9 16 5 0 18 -9 28 -20 10 -11 24 -20 32 -20 8 0 11 -5 8 -10
-3 -5 -1 -10 5 -10 6 0 8 -5 4 -12 -5 -8 -2 -8 10 1 9 8 16 10 14 5 -2 -5 7
-19 20 -31 12 -13 22 -21 22 -18 0 3 9 1 20 -5 11 -6 18 -15 15 -20 -3 -4 3
-7 12 -6 10 2 24 -6 33 -16 8 -10 25 -20 37 -21 12 0 19 -5 17 -9 -3 -4 2 -8
11 -8 9 0 13 -5 10 -10 -4 -6 5 -10 19 -10 14 0 26 -4 26 -10 0 -5 6 -7 14 -4
8 3 16 -3 19 -16 3 -12 10 -19 16 -15 6 3 11 1 11 -5 0 -6 5 -8 11 -5 5 4 20
-4 33 -17 12 -12 29 -24 37 -26 7 -2 19 -8 24 -14 7 -8 6 -8 -4 -3 -10 5 -12
4 -7 -4 4 -6 12 -9 17 -6 11 7 41 -20 32 -29 -4 -3 4 -6 16 -6 12 0 19 -4 16
-10 -3 -5 3 -10 15 -10 12 0 19 -4 16 -8 -3 -5 8 -16 25 -26 16 -9 29 -21 29
-27 0 -5 5 -9 11 -9 5 0 7 6 3 13 -5 8 -2 8 9 -2 20 -16 23 -25 5 -15 -7 3 0
-5 16 -20 16 -14 33 -23 39 -19 5 3 7 2 4 -4 -6 -9 33 -50 43 -44 2 1 7 -6 11
-16 4 -10 8 -13 8 -8 1 6 7 -1 14 -15 8 -14 19 -24 26 -22 7 1 10 -2 6 -7 -3
-6 3 -19 15 -31 11 -11 20 -22 20 -25 0 -3 0 -12 0 -21 0 -8 3 -13 8 -11 7 5
33 -17 32 -28 -1 -28 1 -35 10 -30 6 3 10 1 10 -5 0 -7 6 -10 13 -7 6 2 11 10
9 16 -1 7 2 10 8 6 5 -3 20 1 32 9 15 11 18 16 8 16 -12 1 -11 3 3 11 9 5 17
17 17 24 0 8 3 15 8 15 7 0 10 44 13 197 1 60 4 81 13 76 8 -5 8 -3 0 8 -6 8
-12 50 -12 94 -1 152 -4 197 -13 183 -13 -19 -11 0 2 24 6 11 7 18 1 14 -5 -3
-9 15 -9 44 0 27 -7 57 -14 67 -11 14 -11 15 -1 9 11 -7 12 -4 2 13 -6 12 -9
27 -7 34 2 7 -2 28 -9 49 -7 20 -10 39 -7 42 3 3 1 11 -4 18 -10 13 -11 19
-15 73 -1 14 -6 25 -10 25 -4 0 -8 15 -8 34 0 19 -4 36 -10 38 -5 2 -10 18
-12 36 -1 17 -6 32 -10 32 -4 0 -8 8 -8 19 0 10 -7 31 -14 47 -8 15 -13 31
-10 36 3 4 0 8 -5 8 -6 0 -10 3 -10 8 3 20 -2 32 -13 26 -6 -4 -8 -3 -4 4 8
13 -15 92 -27 92 -5 0 -6 4 -3 9 3 5 -1 14 -9 21 -8 7 -15 21 -15 31 0 11 -9
27 -19 36 -11 9 -17 22 -14 29 3 8 0 14 -7 14 -6 0 -8 5 -5 10 3 6 1 10 -5 10
-6 0 -8 5 -5 10 3 6 1 10 -4 10 -6 0 -11 9 -11 20 0 11 -4 20 -10 20 -5 0 -10
7 -10 16 0 8 -4 12 -10 9 -6 -3 -10 4 -10 18 0 16 -9 28 -26 36 -20 9 -24 14
-15 25 9 11 7 15 -9 19 -14 4 -18 10 -13 23 5 14 3 16 -12 11 -15 -6 -16 -5
-5 8 10 12 10 15 -3 15 -10 0 -15 7 -12 20 2 11 0 20 -4 20 -4 0 -16 7 -27 16
-10 8 -13 13 -6 9 6 -3 12 -1 12 4 0 6 -10 11 -21 11 -19 0 -20 2 -8 17 10 11
10 14 2 9 -9 -5 -13 0 -13 14 0 12 -4 18 -10 15 -5 -3 -10 -1 -10 5 0 6 -10
22 -22 35 -37 40 -49 55 -42 55 4 0 -5 9 -20 21 -14 11 -24 25 -21 30 6 9 -9
14 -30 9 -5 -1 -7 2 -3 6 4 4 0 13 -10 21 -9 8 -11 11 -3 7 9 -5 12 -3 7 4 -4
7 -14 12 -22 12 -8 0 -14 10 -15 23 0 21 -1 21 -8 2 -8 -19 -9 -18 -12 5 -2
14 -12 26 -25 30 -13 3 -20 12 -18 23 1 9 -2 15 -6 12 -5 -3 -11 4 -15 15 -7
23 -60 54 -76 45 -5 -4 -9 -3 -8 2 4 15 -13 43 -22 37 -5 -3 -9 2 -9 11 0 9
-4 13 -10 10 -5 -3 -10 1 -10 10 0 9 -4 13 -10 10 -5 -3 -10 1 -10 9 0 9 -8
16 -19 16 -20 0 -91 65 -91 84 0 7 -4 6 -9 -3 -7 -10 -14 -6 -32 18 -12 17
-30 31 -38 31 -8 0 -24 10 -36 23 -11 13 -16 16 -10 7 12 -19 -35 18 -53 43
-7 9 -22 17 -33 17 -11 0 -17 5 -14 10 3 6 -1 10 -9 10 -9 0 -16 6 -16 13 0 8
-4 7 -10 -3 -6 -10 -10 -11 -10 -2 0 6 -7 12 -16 12 -10 0 -14 5 -10 15 5 13
2 14 -16 4 -18 -9 -20 -9 -15 4 3 8 0 18 -8 21 -10 3 -12 0 -8 -12 4 -13 2
-12 -10 3 -8 11 -13 24 -10 28 3 5 -4 4 -16 -2 -17 -9 -21 -9 -19 1 2 8 -6 13
-19 12 -12 0 -20 3 -17 8 10 16 -7 30 -22 17 -11 -9 -14 -8 -14 6 0 15 -2 16
-17 4 -11 -10 -14 -10 -9 -1 4 7 1 12 -9 12 -9 0 -13 5 -10 10 4 6 -5 10 -19
10 -14 0 -26 5 -26 11 0 8 -4 8 -14 -1 -12 -9 -17 -8 -28 9 -9 15 -15 17 -25
9 -10 -8 -12 -7 -7 5 4 12 1 15 -15 12 -12 -2 -21 1 -21 6 0 6 -4 7 -10 4 -5
-3 -10 2 -11 12 0 10 -3 13 -6 6 -6 -17 -33 -16 -33 1 0 9 -8 12 -26 8 -21 -4
-25 -2 -19 8 6 10 4 12 -8 7 -9 -3 -19 -2 -22 4 -4 5 -11 7 -16 4 -5 -4 -9 -2
-9 4 0 5 -12 8 -26 6 -14 -1 -28 3 -30 10 -3 7 -16 10 -31 7 -20 -4 -24 -2
-18 9 7 12 6 12 -9 0 -15 -12 -17 -12 -14 0 2 8 -3 13 -11 11 -7 -1 -19 2 -26
8 -10 8 -15 8 -20 0 -5 -8 -11 -5 -21 7 -9 13 -13 14 -14 4 0 -10 -3 -11 -13
-2 -8 6 -17 8 -20 4 -4 -3 -14 0 -24 8 -15 12 -16 12 -8 -1 7 -12 6 -13 -7 -3
-8 7 -18 10 -21 6 -4 -3 -7 -2 -7 4 0 6 -11 11 -25 11 -15 0 -22 -5 -18 -12 3
-6 -2 -4 -13 5 -10 9 -27 15 -36 14 -10 -2 -18 1 -18 7 0 6 -7 4 -17 -3 -15
-12 -16 -12 -8 1 8 13 7 13 -8 1 -12 -9 -17 -10 -17 -2 0 7 -5 9 -12 4 -19
-11 -39 -13 -32 -2 5 9 -16 13 -45 10 -7 -2 -10 2 -7 7 9 15 -384 14 -403 -1
-10 -8 -13 -9 -8 0 5 8 -1 11 -18 9 -14 -1 -28 -6 -32 -9 -3 -4 -13 -1 -21 6
-13 9 -14 9 -8 0z"/>
<path d="M4415 4820 c3 -5 8 -10 11 -10 2 0 4 5 4 10 0 6 -5 10 -11 10 -5 0
-7 -4 -4 -10z"/>
<path d="M5030 4106 c0 -2 7 -7 16 -10 8 -3 12 -2 9 4 -6 10 -25 14 -25 6z"/>
<path d="M755 860 c3 -5 8 -10 11 -10 2 0 4 5 4 10 0 6 -5 10 -11 10 -5 0 -7
-4 -4 -10z"/>
<path d="M1153 515 c0 -8 3 -13 5 -10 3 3 12 -1 21 -7 10 -8 9 -4 -3 10 -23
26 -23 26 -23 7z"/>
</g>
</svg>
